P1
# CREATOR: GIMP PNM Filter Version 1.1
12 9
0000000001100110000000011011100111000100011000101000010000011001110011
01100111001101010001100010001111111100