P1
# CREATOR: GIMP PNM Filter Version 1.1
12 9
0000000000000110000001101011100111010100011000101000010000011100011000
11101111011101010001100010001111111100