P1
# CREATOR: GIMP PNM Filter Version 1.1
16 16
0000000000000000000000000000000000111000000111000100000000000010100111
1001111001001000011000010001000001000000100100000100000010011000011000
0110010111110111101000100001100001000001111001111000000000000000000000
0000000000000000000000000000000000000000000000