P1
# CREATOR: GIMP PNM Filter Version 1.1
16 16
0000000000000000000000000001110000111000000000100100000000000001100111
1001111000001000011000010001000001000000100100000100000010010011010011
0010010011010011001000100001100001000001111001111000000000000000000000
0000000000000000000000000000000000000000000000